<svg id="Layer_1" data-name="Layer 1" xmlns="http://www.w3.org/2000/svg" viewBox="0 0 602.1 77.62"><defs><style>.cls-1{isolation:isolate;}.cls-2{fill:#fff;}.cls-3{fill:#ff8400;}</style></defs><g id="text47" class="cls-1"><path class="cls-2" d="M8.25,74.74V70H3.5V8.24H8.25V3.49H51V8.24h4.75V22.49H41.5V17.74H17.75V60.49H41.5V55.74H55.75V70H51v4.75Z"/><path class="cls-2" d="M60.5,74.74V3.49H74.75V32H98.5V3.49h14.25V74.74H98.5V46.24H74.75v28.5Z"/><path class="cls-2" d="M122.25,74.74V70H117.5V8.24h4.75V3.49h47.5V17.74h-38V32H155.5V46.24H131.75V60.49h38V74.74Z"/><path class="cls-2" d="M179.25,74.74V70H174.5V8.24h4.75V3.49H222V8.24h4.75V22.49H212.5V17.74H188.75V60.49H212.5V55.74h14.25V70H222v4.75Z"/><path class="cls-2" d="M231.5,74.74V3.49h14.25V32H269.5V3.49h14.25V36.74H279v4.75h4.75V74.74H269.5V46.24H245.75v28.5Z"/><path class="cls-2" d="M288.5,74.74V3.49H336V8.24h4.75V41.49H336v4.75H302.75v28.5ZM326.5,32V17.74H302.75V32Z"/><path class="cls-2" d="M350.25,74.74V70H345.5V8.24h4.75V3.49H393V8.24h4.75V70H393v4.75ZM383.5,60.49V17.74H359.75V60.49Z"/><path class="cls-2" d="M402.5,74.74V3.49h14.25V74.74Z"/><path class="cls-2" d="M421.5,74.74V3.49h14.25V8.24h4.75v9.5h4.75v9.5H450v9.5h4.75v4.75h4.75v-38h14.25V74.74H459.5V70h-4.75v-9.5H450V51h-4.75v-9.5H440.5V36.74h-4.75v38Z"/><path class="cls-2" d="M497.5,74.74v-57h-19V3.49h52.25V17.74h-19v57Z"/></g><g id="rect49"><path class="cls-3" d="M535.64,3.57v10.2h9.08V23.89h10.33v10.2h10.13V44.21H555.05v10.2H544.72V64.53h-9.08v10.2h31.42V64.61h9.08V54.41h10.33V44.25H596.6V34.05H586.47V23.89H576.25V13.76h-9.19V3.57Z"/><path class="cls-3" d="M567.19,74.86H535.52V64.4h9.08V54.29h10.33V44.09h10.12V34.21H554.93V24H544.6V13.89h-9.08V3.45h31.67V13.63h9.19V23.77H586.6V33.93h10.12V44.38H586.6V54.54H576.27V64.73h-9.08Zm-31.42-.25h31.17V64.48H576V54.29h10.33V44.13h10.12v-10H586.35V24H576.13V13.88h-9.19V3.7H535.77v9.94h9.08V23.77h10.33V34H565.3V44.34H555.18v10.2H544.85V64.65h-9.08Z"/></g></svg>