<svg id="Capa_1" data-name="Capa 1" xmlns="http://www.w3.org/2000/svg" viewBox="0 0 568.03 568.03"><defs><style>.cls-1{fill:#fff;}</style></defs><path class="cls-1" d="M559-7.42H10.56A15.07,15.07,0,0,0-4.51,7.65h0V560.93A15.06,15.06,0,0,0,10.54,576H192.86v-.13c8.23-.1,14.53-4.7,14.82-12.5.75-20.26.22-40.56.22-60.15-14.68.69-28.7,2.54-42.56,1.75-30.56-1.77-54-14.81-66.24-44.74-7.21-17.73-18.09-32.9-35-43a35.55,35.55,0,0,1-8.35-7.51c-3.16-3.69-2.57-7.48,2.43-8.49s10.55-1.74,15.52-.81c19.52,3.66,33,15.91,43.36,32.2,20.43,32.22,51.89,42.08,87.27,27.2,2-.83,4.48-2.84,4.86-4.68,2.85-14.26,8.18-27.26,18.92-38.67-11.94-2.21-23-3.84-33.85-6.35C163,402.89,135,389.89,114.43,364.06,97.66,343,90,318.3,86.49,292.05c-5.51-41.11-.58-79.6,27.66-112.46a8.83,8.83,0,0,0,1.56-7.12c-7.07-23.11-6-46,1-68.87,3.68-12,4.7-12.6,17-10.92.74.1,1.47.28,2.21.41,24.55,4.06,45.68,16,66.49,28.71,2.8,1.71,7.06,2.78,10.13,2a311.34,311.34,0,0,1,149,0c2.89.7,6.74-.3,9.5-1.74,11.32-5.92,22.15-12.79,33.6-18.4C418,97.14,432,92.24,447.14,92.51c2.64,0,6.73,2.57,7.62,4.91,9.1,24.1,11,48.66,3.77,73.74-.78,2.68.37,6.49,1.81,9.13,7.15,13.21,17.15,25.32,21.66,39.24C495.8,262,490.77,304,472,343.87c-17.21,36.56-49.13,55.08-86.92,64.64-12.76,3.22-25.83,5.18-39.6,7.89,18,18.84,20.87,41.84,20.55,65.93-.33,24.84-.24,49.7-.26,74.55,0,12,5.25,18.69,14.42,19.08H574V7.65A15.09,15.09,0,0,0,559-7.42Z"/></svg>