<svg id="Layer_1" data-name="Layer 1" xmlns="http://www.w3.org/2000/svg" viewBox="0 0 714 168"><defs><style>.cls-1{fill:#fff;}</style></defs><path class="cls-1" d="M4.2,67.4H17v74.1H4.2Z"/><path class="cls-1" d="M77.3,89.5H89.7v52.2H77.5l-.6-7.6c-3,6.1-11.1,9.1-17,9.2-15.5.1-26.9-9.4-26.9-27.8,0-18,12-27.4,27.2-27.3,7,0,13.7,3.3,16.6,8.5l.5-7.2ZM46,115.6c0,10,6.9,15.9,15.5,15.9,20.3,0,20.3-31.7,0-31.7-8.6,0-15.5,5.8-15.5,15.8"/><path class="cls-1" d="M120.8,89.5v27.3c0,7.9,4.4,14,12.6,14,7.9,0,13.3-6.7,13.3-14.6V89.5h12.8v52.3H148l-.8-7.1c-5.4,5.3-10.4,7.8-17.7,7.8-12.5,0-21.6-9.4-21.6-25.6V89.5Zm95.7,52.3V114.5c0-7.9-4.4-14-12.6-14-7.9,0-13.4,6.7-13.4,14.6v26.7H177.7V89.5h11.5l.8,7.1c5.3-5.2,10.6-7.8,17.2-7.8,12.3,0,22.1,9.2,22.1,25.6v27.4Zm77-6.7a27,27,0,0,1-20.1,8.3c-15.1,0-27.8-9.1-27.8-27.7s12.6-27.6,27.8-27.6c7.4,0,13.1,2.1,18.9,7.7l-8.2,8.6a16.19,16.19,0,0,0-10.5-4.1c-8.7,0-15,6.4-15,15.5,0,10,6.8,15.3,14.8,15.3a16.21,16.21,0,0,0,11.5-4.3l8.6,8.3Zm27.3-67.5v29a19.4,19.4,0,0,1,16.3-7.8c14.8,0,21.4,10.1,21.4,25.4v27.6H345.6V114.4c0-9.5-5-13.6-11.9-13.6-7.6,0-12.9,6.5-12.9,14.3v26.7H307.9V67.6Zm51.7,84.1h78.8V163H372.5Zm133.3-16.6a27,27,0,0,1-20.1,8.3c-15.2,0-27.8-9.1-27.8-27.7s12.6-27.6,27.8-27.6c7.4,0,13.1,2.1,18.9,7.7l-8.2,8.6a16.19,16.19,0,0,0-10.5-4.1c-8.7,0-15,6.4-15,15.5,0,10,6.8,15.3,14.8,15.3a15.82,15.82,0,0,0,11.4-4.3l8.7,8.3Zm64.3-19.4c0,15.1-10.3,27.2-27.2,27.2s-27.1-12.2-27.1-27.2,10.4-27.2,27-27.2,27.3,12.3,27.3,27.2m-41.5,0c0,7.9,4.8,15.4,14.2,15.4s14.2-7.4,14.2-15.4c0-7.8-5.5-15.5-14.2-15.5-9.3,0-14.2,7.7-14.2,15.5m110.7-48v74.1H627.2l-.8-7.2c-4,6.2-10.5,8.4-16.8,8.4-15.4,0-26.9-10.2-26.9-27.3,0-18,11.3-27.3,26.6-27.3,5.5,0,14.1,3,17.2,8.4V67.9C626.4,67.7,639.3,67.7,639.3,67.7Zm-43.7,47.9c0,9.1,6.6,15.4,14.8,15.4s15.1-5.9,15.1-15.4a14.94,14.94,0,0,0-15.1-15.3c-8.3,0-14.8,5.9-14.8,15.3"/><path class="cls-1" d="M667.3,120.3c.9,6.5,6.5,11.1,15.6,11.1,4.8,0,11-1.8,14-4.9l8.3,8.2c-5.5,5.7-14.5,8.5-22.5,8.5-18,0-28.7-11.1-28.7-27.9C654,99.4,664.8,88,681.8,88c17.5,0,28.4,10.8,26.4,32.3Zm28.4-10.7c-.8-6.8-6.1-10.2-13.6-10.2-7,0-12.7,3.4-14.6,10.2Z"/><path class="cls-1" d="M411.5,40.3a9.4,9.4,0,1,0,9.4,9.4,9.39,9.39,0,0,0-9.4-9.4m0,13.7a4.3,4.3,0,1,1,0-8.6,4.27,4.27,0,0,1,4.3,4.3,4.21,4.21,0,0,1-4.3,4.3"/><path class="cls-1" d="M444.2,70.2l-9.3-13.8c1-12.4-.8-29.1-21.4-49.2a2.64,2.64,0,0,0-1.9-.7h0a3.16,3.16,0,0,0-1.9.7C389.1,27.3,387.3,44,388.3,56.4L379,70.2a2.22,2.22,0,0,0-.3,1.6l7.2,26.4a2.28,2.28,0,0,0,2.1,1.6h.4a2.66,2.66,0,0,0,2.2-1.1l7.2-11,11.6,36.5a2.33,2.33,0,0,0,2.3,1.5,2.53,2.53,0,0,0,2.3-1.5l11.6-36.5,7.2,11a2.66,2.66,0,0,0,2.2,1.1h.4a2.42,2.42,0,0,0,2.1-1.6l7.2-26.4a3.77,3.77,0,0,0-.5-1.6ZM395.7,81.9l-6.5,9.8-5.5-20.2,6.3-9.3,5.9,19.4c0,.1-.1.2-.2.3Zm15.8,34-7.9-25.6h3.9l4,13,4-13h3.9l-7.9,25.6Zm13.8-45.4-1.6,5.1h0l-2.9,9.5-.3.9H402.4l-.3-.9-2.9-9.5h0l-1.6-5.1-4.5-14.6v-.1c-.8-11.2.8-26,18.3-44h0c17.5,18,19.1,32.8,18.3,44v.1l-4.4,14.6Zm8.5,21.3L427.3,82c-.1-.1-.1-.2-.2-.2L433,62.4l6.3,9.3-5.5,20.1Z"/></svg>