<svg id="Layer_1" data-name="Layer 1" xmlns="http://www.w3.org/2000/svg" viewBox="0 0 2268.44 725.33"><defs><style>.cls-1{fill:#fff;}.cls-2{isolation:isolate;}</style></defs><g id="Layer_1-2" data-name="Layer 1-2"><path class="cls-1" d="M362.93,716.24C167.64,716.1,9.44,557.67,9.58,362.38A353.6,353.6,0,0,1,225.33,37c179.89-76,387.32,8.23,463.32,188.12s-8.23,387.32-188.12,463.32A351.39,351.39,0,0,1,362.93,716.24Zm0-687c-183.89,0-333.5,149.61-333.5,333.5S179,696.24,362.93,696.24s333.5-149.61,333.5-333.5S546.82,29.24,362.93,29.24Z"/><path class="cls-1" d="M363.56,718.74h-.63a356.11,356.11,0,0,1-138.57-684A353.78,353.78,0,0,1,362.77,6.53h.16A356.09,356.09,0,0,1,501.5,690.74,351.88,351.88,0,0,1,363.56,718.74Zm-.66-707.3A351.33,351.33,0,0,0,12.08,362.38C11.94,556,169.33,713.6,362.93,713.74h.63a346.93,346.93,0,0,0,136-27.6c178.33-75.35,262.13-281.72,186.79-460A351.93,351.93,0,0,0,362.9,11.44Zm0,687.3c-185.27,0-336-150.73-336-336s150.73-336,336-336,336,150.73,336,336S548.2,698.74,362.93,698.74Zm0-667c-182.51,0-331,148.49-331,331s148.49,331,331,331,331-148.49,331-331S545.44,31.74,362.93,31.74Z"/><rect class="cls-1" x="37.96" y="358.1" width="40.98" height="9.25"/><path class="cls-1" d="M81.44,369.85h-46V355.6h46Zm-41-5h36V360.6h-36Z"/><rect class="cls-1" x="84.15" y="509.37" width="40.97" height="9.25" transform="matrix(0.86, -0.51, 0.51, 0.86, -247.54, 125.26)"/><path class="cls-1" d="M88.5,531.84l-7.27-12.25,39.54-23.45L128,508.39Zm-.42-10.5L90.25,525l30.94-18.35L119,503Z"/><rect class="cls-1" x="195.12" y="621.67" width="40.98" height="9.25" transform="translate(-436.33 509.19) rotate(-60.82)"/><path class="cls-1" d="M210.62,649.84l-12.44-7,22.41-40.14,12.45,7ZM205,641l3.71,2.07,17.54-31.41-3.71-2.08Z"/><rect class="cls-1" x="357.6" y="650.34" width="9.25" height="40.99" transform="translate(-13.34 7.38) rotate(-1.15)"/><path class="cls-1" d="M355.57,694l-.92-46,14.25-.28.92,46Zm4.18-41.08.72,36,4.25-.09-.72-36Z"/><rect class="cls-1" x="87.47" y="198.15" width="9.25" height="40.98" transform="translate(-144.2 197.39) rotate(-62.02)"/><path class="cls-1" d="M109.05,235.72l-40.6-21.58,6.68-12.58,40.61,21.57ZM75.21,212.07,107,229l2-3.75L77.2,208.32Z"/><rect class="cls-1" x="488.12" y="93.26" width="40.98" height="9.25" transform="translate(191.99 507.78) rotate(-63.21)"/><path class="cls-1" d="M504.61,121.61l-12.72-6.42,20.72-41,12.72,6.42Zm-6-8.63,3.8,1.92,16.22-32.12-3.8-1.92Z"/><rect class="cls-1" x="200.08" y="84.78" width="9.25" height="40.98" transform="translate(-24.78 123.23) rotate(-31.69)"/><path class="cls-1" d="M210.72,128.57,186.56,89.45,198.69,82l24.15,39.12Zm-17.28-37.5,18.9,30.62,3.62-2.23-18.9-30.62Z"/><rect class="cls-1" x="648.43" y="358.68" width="40.98" height="9.25" transform="translate(-2.77 5.15) rotate(-0.44)"/><path class="cls-1" d="M646,370.61l-.11-14.25,46-.35.11,14.24Zm4.92-9.29,0,4.25,36-.28,0-4.25Z"/><rect class="cls-1" x="605.44" y="202.42" width="40.98" height="9.25" transform="translate(-13.33 368.29) rotate(-32.46)"/><path class="cls-1" d="M610.36,225.4l-7.65-12,38.8-24.68,7.64,12Zm-.75-10.49,2.28,3.58,30.36-19.31L640,195.6Z"/><rect class="cls-1" x="520.7" y="598.14" width="9.25" height="40.98" transform="translate(-238.6 344.61) rotate(-29.93)"/><path class="cls-1" d="M530.62,642.11l-22.94-39.85L520,595.15,543,635Zm-16.11-38,18,31.18,3.68-2.12L518.19,602Z"/><rect class="cls-1" x="628.11" y="480.75" width="9.25" height="40.98" transform="translate(-92.63 855.41) rotate(-64.41)"/><path class="cls-1" d="M650.4,517.59l-41.47-19.86,6.15-12.85,41.47,19.86Zm-34.8-22.21,32.45,15.54,1.83-3.83-32.45-15.54Z"/></g><g id="Layer_2" data-name="Layer 2"><path class="cls-1" d="M478.61,290l65.66-70.07L538.21,214l-62.69,64.82-.29.31-.21.2-1,1.08-.11-.12c-2.23,1.56-4.73,1.84-6.08.52s-1.11-3.82.4-6.08l-.11-.11,1-1.06.2-.21c.1-.11.21-.2.31-.3l63.5-64-6.55-6.42-62.65,64.8-.29.31-.21.2-1,1.07-.12-.11c-2.22,1.56-4.72,1.84-6.07.52s-1.11-3.82.4-6.08l-.12-.11,1.05-1.06c.07-.07.13-.15.2-.21l.31-.3,63.5-64-6.65-6.44L452.25,256l-.29.31-.21.2-1,1.07-.11-.12c-2.23,1.56-4.73,1.85-6.08.53s-1.11-3.83.4-6.08l-.12-.12,1.05-1.06.2-.21.31-.29,63.5-64-7.07-6.93-69.2,66.6c-4.2,4.29-9,21.42-1.88,35.23l-96.34,95.45c-.12.1-.24.2-.35.31a1.16,1.16,0,0,0-.2.24l-1.15,1.14.3.3c-1.11,3,.32,7.33,3.77,10.71s7.86,4.73,10.8,3.55l.3.3L350,392l.24-.21a2.6,2.6,0,0,0,.3-.36l93.17-98C457.51,300.74,474.28,294.39,478.61,290Z"/><path class="cls-1" d="M348.89,396.67l-1.06-1.05c-3.71.63-8.24-1.07-11.8-4.55s-5.34-8-4.78-11.73l-1.08-1.08L333,375.5a4.38,4.38,0,0,1,.41-.45c.08-.08.22-.2.37-.32l95-94.12c-6.33-14.24-1.77-31.47,3.11-36.46l71-68.34,10.6,10.4-66,66.54-.37.55c-1,1.53-.94,2.7-.73,2.9s1.48.2,2.9-.79l.42-.3.79-.82,64.45-66.61,10.27,9.94L459.5,263.76l-.16.18-.28.28-.34.51c-1,1.54-.94,2.7-.73,2.9s1.48.21,2.88-.78l.44-.3.79-.83,64.43-66.64L536.68,209,471.4,274.81a1.8,1.8,0,0,1-.2.19l-.49.52-.4.6c-1,1.54-.94,2.7-.73,2.9s1.48.21,2.9-.78l.41-.28.8-.85,64.47-66.66,9.61,9.4-67.38,71.91c-5.06,5.12-22,11.05-36.13,4.72l-91.81,96.57a5.72,5.72,0,0,1-.4.46l-1.39,1.38ZM336.51,379l-.16.43c-.66,1.8.21,5.15,3.18,8.05s6.39,3.72,8.12,3l.7-.39.13-.11,0-.05.21-.25,94.47-99.38,1.68.89c12.55,6.65,28,.95,31.93-3l64-68.26-2.51-2.46L476.8,281.09l-2.79,3-.61-.67c-2.75,1.19-5.53.92-7.32-.83s-2.12-4.6-.93-7.41l-.51-.52,2.87-3,.3-.3,61.77-62.26-3-2.89L465.21,269.7l-2.65,2.83L462,272c-2.8,1.27-5.64,1-7.47-.76s-2.11-4.54-1-7.33l-.62-.56,2.88-2.91.27-.27.28-.28L518,197.7l-3-2.94-61.46,63.51-2.8,3-.6-.66c-2.75,1.19-5.53.93-7.32-.82s-2.12-4.6-.93-7.42l-.57-.56,3.38-3.4,61.66-62.15-3.54-3.46L435.36,247.7c-3.57,3.65-7.87,19.71-1.39,32.28l.84,1.63L337,378.5l-.12.1-.06.1Zm.33-.36h0Z"/><path class="cls-1" d="M370.85,392.14l-2-180.9c5.84-.25,20.36,2.85,23.92-8.08C390.66,79.74,352.46,42.24,352.46,42.24v169h0l-2,180.9v3.1h.41c1.23,3.75,5.15,6.5,9.81,6.5s8.59-2.75,9.82-6.5h.43v-2.5C370.93,392.6,370.87,392.34,370.85,392.14Z"/><path class="cls-1" d="M360.68,404.24a13,13,0,0,1-11.45-6.5H348v-5.6l2-180.93V36.28l4.25,4.18c.41.39,10,10,19.94,35,9,22.82,20,63.49,21.12,127.62v.42l-.13.39c-3.52,10.79-15.44,10.23-22.57,9.9l-1.2-.06,2,178.19V392a5.86,5.86,0,0,1,.07.73v5h-1.29A13,13,0,0,1,360.68,404.24ZM353,393.59l.29.87c.92,2.82,4,4.78,7.43,4.78s6.52-2,7.44-4.78l.31-.93v-.71c0-.15,0-.3-.06-.43v-.22l-2-183.32,2.42-.11c1.16-.05,2.51,0,4.08.09,7.87.37,15.13.18,17.44-6.07-1.12-62.8-11.8-102.61-20.58-125C364.12,63.63,358.6,54.51,355,49.36V211.24l-2,180.93Z"/></g><g class="cls-2"><path class="cls-1" d="M878.51,237.82q-30.4,10-47,33t-16.6,57q0,15.21,2.8,20.8c1.86,3.74,2.8,6,2.8,6.8q-42.81,0-42.8-36.4,0-24.79,19-49.8t48.8-40.8q29.79-15.79,59.4-15.8a89.8,89.8,0,0,1,30.4,5.6L926.11,429l88-210.8h57.6l-42,294.4h-57.6L997.71,333l-75.2,179.6h-54.8l8-180.4-66.8,180.4h-32Z"/><path class="cls-1" d="M1076.1,499.62q-16.39-15.39-16.4-48.2,0-27.6,10.8-60.8a141.26,141.26,0,0,1,35.2-57.4q24.4-24.2,62-24.2,44,0,44,38.4a71.68,71.68,0,0,1-12.8,41.2,94.45,94.45,0,0,1-34,30.2,109.72,109.72,0,0,1-45.21,13q-.79,12-.8,16,0,19.6,6.8,26.6t22,7q21.6,0,37-10T1218.5,441h13.61q-44.41,74-110,74Q1092.5,515,1076.1,499.62Zm75-97.4a73.29,73.29,0,0,0,21.6-24.4,63.48,63.48,0,0,0,8.2-31.2q0-16.39-10-16.4-14.42,0-28.2,25.2t-19.81,57.2Q1137.71,411.82,1151.11,402.22Z"/><path class="cls-1" d="M1228.5,499.42q-15.2-15.6-15.2-48.8,0-29.6,11.8-62.2t35.2-55.2q23.4-22.59,55.8-22.6,16.39,0,24.4,5.6t8,14.8v2.8l4.4-21.2h57.6l-28.8,136a49.38,49.38,0,0,0-1.6,12.8q0,17.2,16.4,17.2,11.19,0,19.4-10.4t13-27.2h16.8q-14.81,43.2-36.6,58.6T1365.3,515q-16.8,0-27-9.4t-12.2-27.4a111.81,111.81,0,0,1-25.8,26.6q-14.21,10.2-33.8,10.2Q1243.7,515,1228.5,499.42Zm83.8-32.6q9.79-9.39,13.4-25.8l19.2-90.4a16.3,16.3,0,0,0-4-10.2q-4-5-12.4-5-16,0-28.8,18.6t-20,44.8q-7.2,26.21-7.2,46.2t5.8,25.6a19.63,19.63,0,0,0,14.2,5.6Q1302.49,476.22,1312.3,466.82Z"/><path class="cls-1" d="M1436.69,502.82q-11.79-12.19-11.8-36.6,0-10,3.2-26l42.8-200.4,59.2-8-46,216a45.27,45.27,0,0,0-1.6,11.6q0,16,16.4,16a32.22,32.22,0,0,0,12.8-2.4q-1.59,20-14.2,31a43.8,43.8,0,0,1-29.8,11Q1448.49,515,1436.69,502.82Z"/><path class="cls-1" d="M1632.09,244.22a113.36,113.36,0,0,0-16-1.2q-30.4,0-47.6,19.6t-17.2,66q0,14.81,2.8,20.6c1.86,3.87,2.8,6.07,2.8,6.6q-21.6,0-32.2-9t-10.6-29.8a98.93,98.93,0,0,1,14-51.8q14-23.4,44.6-37.8t77.8-14.4q8.4,0,31.2,2,46.8,4.41,71.6,4.4,32.4,0,46-5.6a85.69,85.69,0,0,1,4.4,26.4q0,21.6-13.2,30.8t-28,9.2a72.86,72.86,0,0,1-19.8-3q-10.61-3-31.4-10.6l-24.4-8.8-54.8,254.8h-57.6Zm79,258.8q-11.8-12-11.8-36,0-10,3.2-26l27.2-128.4h57.6l-28.8,136a49.38,49.38,0,0,0-1.6,12.8q0,8,3.8,11.4t12.6,3.4q11.6,0,21.6-9.8t14.4-25.4h16.8q-14.8,43.2-38,58.6t-46,15.4Q1722.89,515,1711.09,503Z"/><path class="cls-1" d="M2016.68,502q-11.4-13-11.4-32.2a103.9,103.9,0,0,1,2-19q2-10.59,4.2-20.6t3-12.8q3.21-14,6-27.6t2.8-22q0-20.4-14.4-20.4-10.39,0-18.4,10.2t-12.8,26.6l-27.2,128.4h-57.6l29.2-138a41.06,41.06,0,0,0,1.2-10q0-17.6-12-17.6-11.19,0-19.4,10.2t-13,27l-27.2,128.4h-57.6l42.4-200h57.6l-4.4,20.8q20.4-22.8,48.8-22.8,35.2,0,41.2,34.4,22-34,55.6-34,20.4,0,32.4,11.2t12,34a134.05,134.05,0,0,1-2.8,25.8q-2.79,14.21-8,34.6-3.2,12.4-5.8,24.2t-2.6,18.6q0,8,3.6,12.4t12.4,4.4q12,0,19.2-8.6t14.4-26.6h16.8q-14.79,44-34.2,59t-40.2,15Q2028.08,515,2016.68,502Z"/><path class="cls-1" d="M2120.88,499.62q-16.4-15.39-16.4-48.2,0-27.6,10.8-60.8a141.15,141.15,0,0,1,35.2-57.4q24.41-24.2,62-24.2,44,0,44,38.4a71.68,71.68,0,0,1-12.8,41.2,94.37,94.37,0,0,1-34,30.2,109.68,109.68,0,0,1-45.2,13q-.8,8.81-.8,12,0,33.21,24.8,33.2,11.2,0,24-6a96.65,96.65,0,0,0,23.2-15.2q-10.8,59.21-69.2,59.2Q2137.28,515,2120.88,499.62Zm75-97a72.73,72.73,0,0,0,21.6-24.6,64.51,64.51,0,0,0,8.2-31.4q0-16.39-10-16.4-14,0-27.8,25.4a212.31,212.31,0,0,0-20.6,57Q2182.47,412.23,2195.88,402.62Z"/></g></svg>