<svg id="Layer_1" data-name="Layer 1" xmlns="http://www.w3.org/2000/svg" viewBox="0 0 4221.22 725.33"><defs><style>.cls-1{fill:#fff;}</style></defs><g id="Layer_1-2" data-name="Layer 1-2"><path class="cls-1" d="M363.93,717.24C168.64,717.1,10.44,558.67,10.58,363.38A353.6,353.6,0,0,1,226.33,38c179.89-76,387.32,8.23,463.32,188.12s-8.23,387.32-188.12,463.32A351.39,351.39,0,0,1,363.93,717.24Zm0-687c-183.89,0-333.5,149.61-333.5,333.5S180,697.24,363.93,697.24s333.5-149.61,333.5-333.5S547.82,30.24,363.93,30.24Z"/><path class="cls-1" d="M364.56,719.74h-.63C167.26,719.54,8,559.94,8.18,363.27A356.09,356.09,0,0,1,363.77,7.53h.16C560.59,7.4,720.12,166.72,720.25,363.39A356.08,356.08,0,0,1,502.5,691.74,351.88,351.88,0,0,1,364.56,719.74Zm-.66-707.3C170.22,12.72,13.29,169.7,13.08,363.38S170.33,714.6,363.93,714.74h.63a346.89,346.89,0,0,0,136-27.6c178.33-75.35,262.13-281.72,186.79-460A351.93,351.93,0,0,0,363.9,12.44Zm0,687.3c-185.27,0-336-150.73-336-336s150.73-336,336-336,336,150.73,336,336-150.7,336-336,336Zm0-667c-182.51,0-331,148.49-331,331s148.49,331,331,331,331-148.49,331-331-148.46-331-331-331Z"/><rect class="cls-1" x="38.96" y="359.1" width="40.98" height="9.25"/><path class="cls-1" d="M82.44,370.85h-46V356.6h46Zm-41-5h36V361.6h-36Z"/><rect class="cls-1" x="85.1" y="510.31" width="40.96" height="9.25" transform="matrix(0.86, -0.51, 0.51, 0.86, -247.89, 125.88)"/><path class="cls-1" d="M89.5,532.84l-7.27-12.25,39.54-23.45L129,509.39Zm-.42-10.5L91.25,526l30.94-18.35L120,504Z"/><rect class="cls-1" x="196.12" y="622.67" width="40.98" height="9.25" transform="translate(-436.69 510.57) rotate(-60.82)"/><path class="cls-1" d="M211.62,650.84l-12.44-7,22.41-40.14,12.45,7ZM206,642l3.71,2.07,17.54-31.41-3.71-2.08Z"/><rect class="cls-1" x="358.65" y="651.32" width="9.25" height="40.99" transform="translate(-13.41 7.43) rotate(-1.15)"/><path class="cls-1" d="M356.57,695l-.92-46,14.25-.28.92,46Zm4.18-41.08.72,36,4.25-.09-.72-36Z"/><rect class="cls-1" x="88.47" y="199.15" width="9.25" height="40.98" transform="translate(-144.55 198.8) rotate(-62.02)"/><path class="cls-1" d="M110.05,236.72l-40.6-21.58,6.68-12.58,40.61,21.57ZM76.21,213.07,108,230l2-3.75L78.2,209.32Z"/><rect class="cls-1" x="489.12" y="94.26" width="40.98" height="9.25" transform="translate(191.65 509.22) rotate(-63.21)"/><path class="cls-1" d="M505.61,122.61l-12.72-6.42,20.72-41,12.72,6.42Zm-6-8.63,3.8,1.92,16.22-32.12-3.8-1.92Z"/><rect class="cls-1" x="201.08" y="85.78" width="9.25" height="40.98" transform="translate(-25.16 123.91) rotate(-31.69)"/><path class="cls-1" d="M211.72,129.57,187.56,90.45,199.69,83l24.15,39.12Zm-17.28-37.5,18.9,30.62,3.62-2.23-18.9-30.62Z"/><rect class="cls-1" x="649.43" y="359.68" width="40.98" height="9.25" transform="translate(-2.78 5.16) rotate(-0.44)"/><path class="cls-1" d="M647,371.61l-.11-14.25,46-.35.11,14.24Zm4.92-9.29v4.25l36-.28V362Z"/><rect class="cls-1" x="606.44" y="203.42" width="40.98" height="9.25" transform="translate(-13.71 368.98) rotate(-32.46)"/><path class="cls-1" d="M611.36,226.4l-7.65-12,38.8-24.68,7.64,12Zm-.75-10.49,2.28,3.58,30.36-19.31L641,196.6Z"/><rect class="cls-1" x="521.7" y="599.14" width="9.25" height="40.98" transform="translate(-238.97 345.24) rotate(-29.93)"/><path class="cls-1" d="M531.62,643.11l-22.94-39.85L521,596.15,544,636Zm-16.11-38,18,31.18,3.68-2.12-18-31.17Z"/><rect class="cls-1" x="629.11" y="481.75" width="9.25" height="40.98" transform="translate(-92.97 856.88) rotate(-64.41)"/><path class="cls-1" d="M651.4,518.59l-41.47-19.86,6.15-12.85,41.47,19.86Zm-34.8-22.21,32.45,15.54,1.83-3.83-32.45-15.54Z"/></g><g id="Layer_2" data-name="Layer 2"><path class="cls-1" d="M479.61,291l65.66-70.07L539.21,215l-62.69,64.82-.29.31-.21.2-1,1.08-.11-.12c-2.23,1.56-4.73,1.84-6.08.52s-1.11-3.82.4-6.08l-.11-.11,1-1.06.2-.21c.1-.11.21-.2.31-.3l63.5-64-6.55-6.42-62.65,64.8-.29.31-.21.2-1,1.07-.12-.11c-2.22,1.56-4.72,1.84-6.07.52s-1.11-3.82.4-6.08l-.12-.11,1.05-1.06c.07-.07.13-.15.2-.21l.31-.3,63.5-64-6.65-6.44L453.25,257l-.29.31-.21.2-1,1.07-.11-.12c-2.23,1.56-4.73,1.85-6.08.53s-1.11-3.83.4-6.08l-.12-.12,1.05-1.06.2-.21.31-.29,63.5-64-7.07-6.93-69.2,66.6c-4.2,4.29-9,21.42-1.88,35.23l-96.34,95.45c-.12.1-.24.2-.35.31a1.16,1.16,0,0,0-.2.24l-1.15,1.14.3.3c-1.11,3,.32,7.33,3.77,10.71s7.86,4.73,10.8,3.55l.3.3L351,393l.24-.21a2.6,2.6,0,0,0,.3-.36l93.17-98C458.51,301.74,475.28,295.39,479.61,291Z"/><path class="cls-1" d="M349.89,397.67l-1.06-1.05c-3.71.63-8.24-1.07-11.8-4.55s-5.34-8-4.78-11.73l-1.08-1.08L334,376.5a4.38,4.38,0,0,1,.41-.45c.08-.08.22-.2.37-.32l95-94.12c-6.33-14.24-1.77-31.47,3.11-36.46l71-68.34,10.6,10.4-66,66.54-.37.55c-1,1.53-.94,2.7-.73,2.9s1.48.2,2.9-.79l.42-.3.79-.82L516,188.68l10.27,9.94L460.5,264.76l-.16.18-.28.28-.34.51c-1,1.54-.94,2.7-.73,2.9s1.48.21,2.88-.78l.44-.3.79-.83,64.43-66.64L537.68,210,472.4,275.81a1.8,1.8,0,0,1-.2.19l-.49.52-.4.6c-1,1.54-.94,2.7-.73,2.9s1.48.21,2.9-.78l.41-.28.8-.85,64.47-66.66,9.61,9.4-67.38,71.91c-5.06,5.12-22,11.05-36.13,4.72l-91.81,96.57c-.13.16-.26.31-.4.46l-1.39,1.38ZM337.51,380l-.16.43c-.66,1.8.21,5.15,3.18,8.05s6.39,3.72,8.12,3l.7-.39.13-.11v-.05l.21-.25,94.47-99.38,1.68.89c12.55,6.65,28,.95,31.93-3l64-68.26-2.51-2.46L477.8,282.09l-2.79,3-.61-.67c-2.75,1.19-5.53.92-7.32-.83s-2.12-4.6-.93-7.41l-.51-.52,2.87-3,.3-.3,61.77-62.26-3-2.89L466.21,270.7l-2.65,2.83L463,273c-2.8,1.27-5.64,1-7.47-.76s-2.11-4.54-1-7.33l-.62-.56,2.88-2.91.27-.27.28-.28L519,198.7l-3-2.94-61.46,63.51-2.8,3-.6-.66c-2.75,1.19-5.53.93-7.32-.82s-2.12-4.6-.93-7.42l-.57-.56,3.38-3.4,61.66-62.15-3.54-3.46-67.46,64.9c-3.57,3.65-7.87,19.71-1.39,32.28l.84,1.63L338,379.5l-.12.1-.06.1Zm.33-.36Z"/><path class="cls-1" d="M371.85,393.14l-2-180.9c5.84-.25,20.36,2.85,23.92-8.08C391.66,80.74,353.46,43.24,353.46,43.24v169h0l-2,180.9v3.1h.41c1.23,3.75,5.15,6.5,9.81,6.5s8.59-2.75,9.82-6.5h.43v-2.5C371.93,393.6,371.87,393.34,371.85,393.14Z"/><path class="cls-1" d="M361.68,405.24a13,13,0,0,1-11.45-6.5H349v-5.6l2-180.93V37.28l4.25,4.18c.41.39,10,10,19.94,35,9,22.82,20,63.49,21.12,127.62v.42l-.13.39c-3.52,10.79-15.44,10.23-22.57,9.9l-1.2-.06,2,178.19V393a6,6,0,0,1,.07.73v5h-1.29A13,13,0,0,1,361.68,405.24ZM354,394.59l.29.87c.92,2.82,4,4.78,7.43,4.78s6.52-2,7.44-4.78l.31-.93v-.71a1,1,0,0,0-.06-.43v-.22l-2-183.32,2.42-.11c1.16-.05,2.51,0,4.08.09,7.87.37,15.13.18,17.44-6.07-1.12-62.8-11.8-102.61-20.58-125C365.12,64.63,359.6,55.51,356,50.36V212.24l-2,180.93Z"/></g><path class="cls-1" d="M1048.23,78.41q-69.75,22.94-107.82,75.7T902.33,284.87q0,34.89,6.42,47.71c4.27,8.58,6.42,13.76,6.42,15.6q-98.2,0-98.18-83.5,0-56.87,43.59-114.24t111.94-93.6q68.34-36.21,136.27-36.24a205.74,205.74,0,0,1,69.73,12.85L1157.42,517,1359.29,33.4h132.13l-96.34,675.35H1262.94l58.73-412-172.51,412H1023.45l18.35-413.84L888.56,708.75h-73.4Z"/><path class="cls-1" d="M1501.49,679q-37.59-35.29-37.62-110.57,0-63.31,24.78-139.47a324,324,0,0,1,80.75-131.68q56-55.51,142.22-55.51,100.94,0,100.94,88.09a164.37,164.37,0,0,1-29.37,94.51,216.65,216.65,0,0,1-78,69.28,251.79,251.79,0,0,1-103.71,29.82q-1.82,27.52-1.84,36.7,0,45,15.6,61t50.47,16.06q49.54,0,84.88-22.94t77.56-69.78h31.22Q1757.5,714.25,1607,714.25,1539.12,714.25,1501.49,679Zm172-223.43a168.1,168.1,0,0,0,49.55-56A145.61,145.61,0,0,0,1741.9,328q0-37.59-22.94-37.62-33.07,0-64.69,57.81T1608.83,479.4q34-1.84,64.73-23.86Z"/><path class="cls-1" d="M1851.1,678.51q-34.87-35.78-34.87-111.94,0-67.91,27.07-142.69T1924,297.25q53.68-51.81,128-51.84,37.59,0,56,12.85t18.35,33.95v6.42l10.1-48.63H2268.6l-66.07,312a113.6,113.6,0,0,0-3.67,29.36q0,39.46,37.63,39.46,25.66,0,44.5-23.86t29.82-62.4h38.54q-34,99.11-84,134.43t-100.48,35.28q-38.53,0-61.93-21.56t-28-62.85a256.55,256.55,0,0,1-59.19,61q-32.6,23.39-77.53,23.39Q1886,714.25,1851.1,678.51Zm192.23-74.78q22.46-21.54,30.74-59.18l44-207.38a37.39,37.39,0,0,0-9.18-23.4q-9.18-11.47-28.45-11.47-36.69,0-66.06,42.67t-45.88,102.77q-16.52,60.12-16.52,106t13.31,58.73a45,45,0,0,0,32.57,12.84Q2020.83,625.29,2043.33,603.73Z"/><path class="cls-1" d="M2328.68,686.31q-27-28-27.07-84,0-22.94,7.34-59.64L2407.13,83l135.81-18.36-105.53,495.5a104.07,104.07,0,0,0-3.67,26.61q0,36.71,37.63,36.71a73.85,73.85,0,0,0,29.36-5.51q-3.64,45.88-32.58,71.12a100.48,100.48,0,0,1-68.36,25.23Q2355.75,714.26,2328.68,686.31Z"/><path class="cls-1" d="M2776.92,93.09a260.57,260.57,0,0,0-36.7-2.75q-69.73,0-109.19,45t-39.46,151.4q0,34,6.42,47.26c4.27,8.88,6.43,13.92,6.43,15.14q-49.56,0-73.87-20.65t-24.32-68.36a227,227,0,0,1,32.12-118.83q32.12-53.67,102.31-86.71t178.47-33q19.27,0,71.58,4.59Q2998.07,36.22,3055,36.2q74.33,0,105.52-12.85a196.72,196.72,0,0,1,10.09,60.56q0,49.56-30.28,70.66t-64.23,21.1a167.14,167.14,0,0,1-45.42-6.88q-24.34-6.89-72-24.32l-56-20.18-125.71,584.5H2644.79Zm181.23,593.68q-27.08-27.53-27.07-82.58,0-22.94,7.34-59.65L3000.82,250H3133l-66.07,312a113.6,113.6,0,0,0-3.67,29.36q0,18.36,8.72,26.15t28.9,7.8q26.61,0,49.55-22.48t33-58.27H3222q-34,99.11-87.18,134.43T3029.26,714.3q-44,0-71.11-27.57Z"/><path class="cls-1" d="M3659.17,684.43Q3633,654.61,3633,610.57A238.15,238.15,0,0,1,3637.6,567q4.59-24.3,9.64-47.26t6.88-29.36q7.37-32.12,13.76-63.31t6.43-50.47q0-46.8-33-46.8-23.83,0-42.21,23.4t-29.36,61l-62.4,294.55H3375.17l67-316.57a94.36,94.36,0,0,0,2.75-22.94q0-40.38-27.53-40.38-25.66,0-44.5,23.4t-29.82,61.94l-62.4,294.55H3148.53L3245.79,250h132.13l-10.09,47.72q46.8-52.31,112-52.31,80.74,0,94.51,78.92,50.46-78,127.54-78,46.8,0,74.33,25.69t27.53,78a307.29,307.29,0,0,1-6.43,59.18q-6.39,32.61-18.35,79.38-7.34,28.44-13.3,55.51t-6,42.67q0,18.35,8.26,28.44t28.45,10.1q27.53,0,44-19.73t33-61H3912Q3878,645.43,3833.51,679.84t-92.22,34.41Q3685.33,714.25,3659.17,684.43Z"/><path class="cls-1" d="M3898.2,679q-37.62-35.29-37.62-110.57,0-63.31,24.77-139.47a323.92,323.92,0,0,1,80.75-131.68q56-55.51,142.23-55.51,100.93,0,100.93,88.09a164.44,164.44,0,0,1-29.36,94.51,216.42,216.42,0,0,1-78,69.28,251.62,251.62,0,0,1-103.68,29.82q-1.84,20.2-1.84,27.53,0,76.18,56.89,76.16,25.7,0,55.06-13.77a221.66,221.66,0,0,0,53.22-34.86q-24.78,135.82-158.75,135.8Q3935.83,714.26,3898.2,679Zm172.05-222.51A166.86,166.86,0,0,0,4119.8,400a148,148,0,0,0,18.81-72q0-37.59-22.94-37.62-32.11,0-63.77,58.27a486.82,486.82,0,0,0-47.26,130.76Q4039.48,478.5,4070.25,456.46Z"/></svg>