<svg id="Layer_1" data-name="Layer 1" xmlns="http://www.w3.org/2000/svg" viewBox="0 0 1184 304"><defs><style>.cls-1{fill:#fff;}</style></defs><path class="cls-1" d="M24.8,8.8H93.2q45.6,0,43.2,49.2L132,143.2Q129.2,192,84,192H52.8L47.6,296H10Zm30,148.4h24q14.79,0,15.6-16.8l4.4-80q.8-16.8-16-16.8h-22Z"/><path class="cls-1" d="M197.2,296q-45.6,0-43.2-48.8L164,58q2.4-49.2,47.6-49.2h36q45.2,0,42.8,49.2l-10,189.2Q278,296,232.4,296Zm10.4-34.8h19.2q15.19,0,16-16.8l10-184q.8-16.8-16-16.8h-18q-16.41,0-17.2,16.8l-10,184Q190.79,261.2,207.6,261.2Z"/><path class="cls-1" d="M326,8.8h73.6q43.2,0,40.8,49.2l-3.6,70.8q-2,37.6-25.2,47.6L432,296H396.4L377.6,180H354.8l-6,116H311.2Zm30.4,138.4h24.8q16.8,0,18-20.8l3.2-62q1.2-20.79-15.6-20.8H362Z"/><path class="cls-1" d="M532.39,43.6,519.19,296h-37.6l13.2-252.4h-36l1.6-34.8H570l-1.6,34.8Z"/><path class="cls-1" d="M672.39,130.8l-1.6,34.8h-49.6L614.39,296h-37.6L591.59,8.8h93.6l-1.6,34.8h-56l-4.8,87.2Z"/><path class="cls-1" d="M739.19,296q-45.6,0-43.2-48.8L706,58q2.4-49.2,47.6-49.2h36q45.2,0,42.8,49.2l-10,189.2Q820,296,774.39,296Zm10.4-34.8h19.2q15.19,0,16-16.8l10-184q.8-16.8-16-16.8h-18q-16.41,0-17.2,16.8l-10,184Q732.78,261.2,749.59,261.2Z"/><path class="cls-1" d="M942.79,296h-89.6L868,8.8h37.6l-13.2,252.4h52Z"/><path class="cls-1" d="M964.39,296,979.19,8.8h37.6L1002,296Z"/><path class="cls-1" d="M1080.79,296q-45.6,0-43.21-48.8l10-189.2Q1050,8.8,1095.19,8.8h36q45.19,0,42.79,49.2l-10,189.2Q1161.6,296,1116,296Zm10.4-34.8h19.2q15.19,0,16-16.8l10-184q.79-16.8-16-16.8h-18q-16.41,0-17.2,16.8l-10,184Q1074.38,261.2,1091.19,261.2Z"/></svg>