<svg id="Layer_1" data-name="Layer 1" xmlns="http://www.w3.org/2000/svg" viewBox="0 0 4346.67 645.33"><defs><style>.cls-1{fill:#fff;}</style></defs><path class="cls-1" d="M322.82,36.62q55.79,0,106.84,27.7,101.28,54.21,75.57,187.16Q479.12,384.83,356.85,439q-61.74,27.32-117.52,27.31H111.51L81.05,623.44H19.71l114-586.82ZM183.14,97.55,123.39,405.8H251.2q42.74-.39,87.45-20.57,85.07-38.39,103.67-133.75T390.88,117.74A165,165,0,0,0,311,97.55Z"/><path class="cls-1" d="M874,27.12q124.64,0,196.26,88.24Q1141.12,204,1117,328.64T987.2,541.92q-105.66,88.25-230.3,88.25T560.63,541.92Q489.8,453.3,513.94,328.64T643.73,115.36Q749.38,27.13,874,27.12ZM768.77,569.23q99.72,0,184-70.44,83.88-70.43,103.28-170.15t-37.2-170.15q-57-70.43-156.7-70.43t-183.6,70.43q-84.28,70.44-103.67,170.15t37.59,170.15Q669.05,569.23,768.77,569.23Z"/><path class="cls-1" d="M1569.66,251.88q-22.15,112.38-114.35,169.36-57.39,35.61-108.82,41.55L1481,623.44H1391.2L1257.46,464l-47.09-58.17H1316q42.74,0,87.85-20.18,84.68-38.37,103.27-133.74,18.19-95.35-51.44-133.75A163.59,163.59,0,0,0,1375.77,98h-129L1144.68,623.44h-61.33L1197.31,37h190.33q55.8,0,106.45,27.7Q1595.37,118.94,1569.66,251.88Z"/><path class="cls-1" d="M2069.83,98.35h-193.1L1774.64,623.44H1713.3L1815.39,98.35H1623.08L1635,37H2081.7Z"/><path class="cls-1" d="M2547,98H2156.49L2054.39,623l-62.91.4L2105.84,35.83h453.47Zm-72.41,364H2131.16L2143,400.66H2486.5Z"/><path class="cls-1" d="M2886.15,27.12q124.65,0,196.27,88.24,70.83,88.65,46.69,213.28T2999.32,541.92Q2893.68,630.17,2769,630.17t-196.27-88.25q-70.83-88.62-46.69-213.28t129.79-213.28Q2761.51,27.13,2886.15,27.12ZM2780.9,569.23q99.7,0,184-70.44,83.88-70.43,103.27-170.15T3031,158.49q-57-70.43-156.7-70.43t-183.6,70.43Q2606.39,228.93,2587,328.64t37.6,170.15Q2681.18,569.23,2780.9,569.23Z"/><path class="cls-1" d="M3558.84,562.11,3547,623.44H3095.48l114-586.82h61.33L3168.68,562.11Z"/><path class="cls-1" d="M3632,623.44h-61.33l114-587.22H3746Z"/><path class="cls-1" d="M4073.25,27.12q124.65,0,196.27,88.24,70.81,88.65,46.69,213.28T4186.42,541.92q-105.66,88.25-230.3,88.25t-196.26-88.25q-70.84-88.62-46.7-213.28T3843,115.36Q3948.61,27.13,4073.25,27.12ZM3968,569.23q99.72,0,184-70.44,83.9-70.43,103.28-170.15t-37.2-170.15q-57-70.43-156.69-70.43t-183.61,70.43q-84.29,70.44-103.67,170.15t37.59,170.15Q3868.27,569.23,3968,569.23Z"/></svg>